HIERARCHY
ROOT Hips
{
    OFFSET 0.000000 97.120003 0.000000
    CHANNELS 6 Xposition Yposition Zposition Yrotation Xrotation Zrotation
    JOINT RightUpLeg
    {
        OFFSET -11.000000 -0.000000 0.000000
        CHANNELS 3 Yrotation Xrotation Zrotation
        JOINT RightLeg
        {
            OFFSET 0.000000 -45.062000 0.000000
            CHANNELS 3 Yrotation Xrotation Zrotation
            JOINT RightFoot
            {
                OFFSET 0.000000 -42.057999 0.000000
                CHANNELS 3 Yrotation Xrotation Zrotation
                End Site
                {
                    OFFSET 0.000000 -10.000000 15.120000
                }
            }
        }
    }
    JOINT LeftUpLeg
    {
        OFFSET 11.000000 -0.000000 0.000000
        CHANNELS 3 Yrotation Xrotation Zrotation
        JOINT LeftLeg
        {
            OFFSET 0.000000 -45.062000 0.000000
            CHANNELS 3 Yrotation Xrotation Zrotation
            JOINT LeftFoot
            {
                OFFSET 0.000000 -42.057999 0.000000
                CHANNELS 3 Yrotation Xrotation Zrotation
                End Site
                {
                    OFFSET 0.000000 -10.000000 15.120000
                }
            }
        }
    }
    JOINT Spine
    {
        OFFSET 0.000000 8.120000 0.000000
        CHANNELS 3 Yrotation Xrotation Zrotation
        JOINT Spine1
        {
            OFFSET 0.000000 17.980000 0.000000
            CHANNELS 3 Yrotation Xrotation Zrotation
            JOINT Spine2
            {
                OFFSET 0.000000 12.760000 0.000000
                CHANNELS 3 Yrotation Xrotation Zrotation
                JOINT Neck
                {
                    OFFSET 0.000000 19.139999 0.000000
                    CHANNELS 3 Yrotation Xrotation Zrotation
                    JOINT Neck1
                    {
                        OFFSET 0.000000 4.250000 0.000000
                        CHANNELS 3 Yrotation Xrotation Zrotation
                        JOINT Head
                        {
                            OFFSET 0.000000 4.250000 0.000000
                            CHANNELS 3 Yrotation Xrotation Zrotation
                            End Site
                            {
                                OFFSET 0.000000 19.120001 0.000000
                            }
                        }
                    }
                }
                JOINT RightShoulder
                {
                    OFFSET -2.900000 13.340000 0.000000
                    CHANNELS 3 Yrotation Xrotation Zrotation
                    JOINT RightArm
                    {
                        OFFSET -16.100000 0.000000 0.000000
                        CHANNELS 3 Yrotation Xrotation Zrotation
                        JOINT RightForeArm
                        {
                            OFFSET -28.000000 0.000000 0.000000
                            CHANNELS 3 Yrotation Xrotation Zrotation
                            JOINT RightHand
                            {
                                OFFSET -26.000000 0.000000 0.000000
                                CHANNELS 3 Yrotation Xrotation Zrotation
                                JOINT RightHandThumb1
                                {
                                    OFFSET -1.937000 -0.484000 2.518000
                                    CHANNELS 3 Yrotation Xrotation Zrotation
                                    JOINT RightHandThumb2
                                    {
                                        OFFSET -3.872000 0.000000 0.000000
                                        CHANNELS 3 Yrotation Xrotation Zrotation
                                        JOINT RightHandThumb3
                                        {
                                            OFFSET -2.690000 0.000000 0.000000
                                            CHANNELS 3 Yrotation Xrotation Zrotation
                                            End Site
                                            {
                                                OFFSET -2.537000 0.000000 0.000000
                                            }
                                        }
                                    }
                                }
                                JOINT RightInHandIndex
                                {
                                    OFFSET -3.389000 0.535000 2.080000
                                    CHANNELS 3 Yrotation Xrotation Zrotation
                                    JOINT RightHandIndex1
                                    {
                                        OFFSET -5.485000 -0.096000 1.051000
                                        CHANNELS 3 Yrotation Xrotation Zrotation
                                        JOINT RightHandIndex2
                                        {
                                            OFFSET -3.806000 0.000000 0.000000
                                            CHANNELS 3 Yrotation Xrotation Zrotation
                                            JOINT RightHandIndex3
                                            {
                                                OFFSET -2.158000 0.000000 0.000000
                                                CHANNELS 3 Yrotation Xrotation Zrotation
                                                End Site
                                                {
                                                    OFFSET -1.898000 0.000000 0.000000
                                                }
                                            }
                                        }
                                    }
                                }
                                JOINT RightInHandMiddle
                                {
                                    OFFSET -3.556000 0.544000 0.796000
                                    CHANNELS 3 Yrotation Xrotation Zrotation
                                    JOINT RightHandMiddle1
                                    {
                                        OFFSET -5.441000 -0.088000 0.330000
                                        CHANNELS 3 Yrotation Xrotation Zrotation
                                        JOINT RightHandMiddle2
                                        {
                                            OFFSET -4.153000 0.000000 0.000000
                                            CHANNELS 3 Yrotation Xrotation Zrotation
                                            JOINT RightHandMiddle3
                                            {
                                                OFFSET -2.603000 0.000000 0.000000
                                                CHANNELS 3 Yrotation Xrotation Zrotation
                                                End Site
                                                {
                                                    OFFSET -2.076000 0.000000 0.000000
                                                }
                                            }
                                        }
                                    }
                                }
                                JOINT RightInHandRing
                                {
                                    OFFSET -3.539000 0.566000 -0.136000
                                    CHANNELS 3 Yrotation Xrotation Zrotation
                                    JOINT RightHandRing1
                                    {
                                        OFFSET -4.873000 -0.023000 -0.504000
                                        CHANNELS 3 Yrotation Xrotation Zrotation
                                        JOINT RightHandRing2
                                        {
                                            OFFSET -3.619000 0.000000 0.000000
                                            CHANNELS 3 Yrotation Xrotation Zrotation
                                            JOINT RightHandRing3
                                            {
                                                OFFSET -2.511000 0.000000 0.000000
                                                CHANNELS 3 Yrotation Xrotation Zrotation
                                                End Site
                                                {
                                                    OFFSET -1.952000 0.000000 0.000000
                                                }
                                            }
                                        }
                                    }
                                }
                                JOINT RightInHandPinky
                                {
                                    OFFSET -3.324000 0.494000 -1.264000
                                    CHANNELS 3 Yrotation Xrotation Zrotation
                                    JOINT RightHandPinky1
                                    {
                                        OFFSET -4.354000 -0.023000 -1.147000
                                        CHANNELS 3 Yrotation Xrotation Zrotation
                                        JOINT RightHandPinky2
                                        {
                                            OFFSET -2.898000 0.000000 0.000000
                                            CHANNELS 3 Yrotation Xrotation Zrotation
                                            JOINT RightHandPinky3
                                            {
                                                OFFSET -1.831000 0.000000 0.000000
                                                CHANNELS 3 Yrotation Xrotation Zrotation
                                                End Site
                                                {
                                                    OFFSET -1.730000 0.000000 0.000000
                                                }
                                            }
                                        }
                                    }
                                }
                            }
                        }
                    }
                }
                JOINT LeftShoulder
                {
                    OFFSET 2.900000 13.340000 0.000000
                    CHANNELS 3 Yrotation Xrotation Zrotation
                    JOINT LeftArm
                    {
                        OFFSET 16.100000 0.000000 0.000000
                        CHANNELS 3 Yrotation Xrotation Zrotation
                        JOINT LeftForeArm
                        {
                            OFFSET 28.000000 0.000000 0.000000
                            CHANNELS 3 Yrotation Xrotation Zrotation
                            JOINT LeftHand
                            {
                                OFFSET 26.000000 0.000000 0.000000
                                CHANNELS 3 Yrotation Xrotation Zrotation
                                JOINT LeftHandThumb1
                                {
                                    OFFSET 1.937000 -0.484000 2.518000
                                    CHANNELS 3 Yrotation Xrotation Zrotation
                                    JOINT LeftHandThumb2
                                    {
                                        OFFSET 3.872000 0.000000 0.000000
                                        CHANNELS 3 Yrotation Xrotation Zrotation
                                        JOINT LeftHandThumb3
                                        {
                                            OFFSET 2.690000 0.000000 0.000000
                                            CHANNELS 3 Yrotation Xrotation Zrotation
                                            End Site
                                            {
                                                OFFSET 2.537000 0.000000 0.000000
                                            }
                                        }
                                    }
                                }
                                JOINT LeftInHandIndex
                                {
                                    OFFSET 3.389000 0.535000 2.080000
                                    CHANNELS 3 Yrotation Xrotation Zrotation
                                    JOINT LeftHandIndex1
                                    {
                                        OFFSET 5.485000 -0.096000 1.051000
                                        CHANNELS 3 Yrotation Xrotation Zrotation
                                        JOINT LeftHandIndex2
                                        {
                                            OFFSET 3.806000 0.000000 0.000000
                                            CHANNELS 3 Yrotation Xrotation Zrotation
                                            JOINT LeftHandIndex3
                                            {
                                                OFFSET 2.158000 0.000000 0.000000
                                                CHANNELS 3 Yrotation Xrotation Zrotation
                                                End Site
                                                {
                                                    OFFSET 1.898000 0.000000 0.000000
                                                }
                                            }
                                        }
                                    }
                                }
                                JOINT LeftInHandMiddle
                                {
                                    OFFSET 3.556000 0.544000 0.796000
                                    CHANNELS 3 Yrotation Xrotation Zrotation
                                    JOINT LeftHandMiddle1
                                    {
                                        OFFSET 5.441000 -0.088000 0.330000
                                        CHANNELS 3 Yrotation Xrotation Zrotation
                                        JOINT LeftHandMiddle2
                                        {
                                            OFFSET 4.153000 0.000000 0.000000
                                            CHANNELS 3 Yrotation Xrotation Zrotation
                                            JOINT LeftHandMiddle3
                                            {
                                                OFFSET 2.603000 0.000000 0.000000
                                                CHANNELS 3 Yrotation Xrotation Zrotation
                                                End Site
                                                {
                                                    OFFSET 2.076000 0.000000 0.000000
                                                }
                                            }
                                        }
                                    }
                                }
                                JOINT LeftInHandRing
                                {
                                    OFFSET 3.539000 0.566000 -0.136000
                                    CHANNELS 3 Yrotation Xrotation Zrotation
                                    JOINT LeftHandRing1
                                    {
                                        OFFSET 4.873000 -0.023000 -0.504000
                                        CHANNELS 3 Yrotation Xrotation Zrotation
                                        JOINT LeftHandRing2
                                        {
                                            OFFSET 3.619000 0.000000 0.000000
                                            CHANNELS 3 Yrotation Xrotation Zrotation
                                            JOINT LeftHandRing3
                                            {
                                                OFFSET 2.511000 0.000000 0.000000
                                                CHANNELS 3 Yrotation Xrotation Zrotation
                                                End Site
                                                {
                                                    OFFSET 1.952000 0.000000 0.000000
                                                }
                                            }
                                        }
                                    }
                                }
                                JOINT LeftInHandPinky
                                {
                                    OFFSET 3.324000 0.494000 -1.264000
                                    CHANNELS 3 Yrotation Xrotation Zrotation
                                    JOINT LeftHandPinky1
                                    {
                                        OFFSET 4.354000 -0.023000 -1.147000
                                        CHANNELS 3 Yrotation Xrotation Zrotation
                                        JOINT LeftHandPinky2
                                        {
                                            OFFSET 2.898000 0.000000 0.000000
                                            CHANNELS 3 Yrotation Xrotation Zrotation
                                            JOINT LeftHandPinky3
                                            {
                                                OFFSET 1.831000 0.000000 0.000000
                                                CHANNELS 3 Yrotation Xrotation Zrotation
                                                End Site
                                                {
                                                    OFFSET 1.730000 0.000000 0.000000
                                                }
                                            }
                                        }
                                    }
                                }
                            }
                        }
                    }
                }
            }
        }
    }
}
MOTION
Frames: 4
Frame Time: 0.010000
-0.200317 93.524261 -18.913754 6.676918 7.148240 1.409752 175.386749 -155.505997 172.335434 178.668961 139.727936 167.786987 10.489603 -9.271254 13.398881 14.481876 -15.165438 0.411099 7.585946 30.110144 4.036202 177.862701 -159.850632 173.428223 0.283866 0.971615 1.776148 0.422335 0.961017 0.398262 1.959315 0.670217 0.549200 180.000000 -177.485550 -179.419540 180.000000 -177.066483 -179.398819 179.851059 -177.837082 -179.639221 7.464208 -10.139200 0.174047 13.881088 4.812242 81.633698 19.014446 20.466438 -3.348269 0.074814 16.373821 -42.841713 65.719696 6.287548 28.503834 180.000000 -180.000000 -149.981277 0.000002 -0.000000 19.992462 0.000000 -0.000000 0.000000 15.000004 -0.000001 69.943909 180.000000 180.000000 -122.773186 0.000000 -0.000000 40.058781 0.000000 -0.000000 0.000000 180.000000 -179.999985 -111.883255 0.000003 -0.000001 68.116745 180.000000 -180.000000 -134.634247 0.000000 -0.000000 0.000000 170.000000 -179.999985 -107.420647 0.000001 0.000001 72.579353 0.000003 -0.000002 48.337845 0.000000 -0.000000 0.000000 160.000015 -180.000000 -114.151527 0.000001 0.000001 98.772728 180.000000 -179.999985 -114.217384 174.808655 -172.982697 174.953278 158.398361 -164.271545 111.883781 67.064011 157.558929 -174.249619 146.623047 175.353607 -131.920929 97.483032 166.962555 143.165634 180.000000 179.999985 168.944397 0.000000 -0.000003 -7.363026 0.000000 -0.000000 0.000000 165.000015 -180.000000 117.085564 180.000000 -180.000000 128.524551 0.000000 0.000000 -36.032822 0.000000 -0.000000 0.000000 180.000000 -180.000000 124.030006 180.000000 180.000000 124.030006 180.000000 180.000000 142.723969 0.000000 -0.000000 0.000000 10.000001 0.000000 -52.264271 180.000000 -180.000000 127.735741 180.000000 180.000000 145.192001 0.000000 -0.000000 0.000000 19.999998 -0.000001 -48.555515 180.000000 180.000000 107.166695 180.000000 180.000000 131.493042
0.014441 93.667076 -18.781528 5.263072 7.196613 2.028193 175.831589 -155.267487 171.844498 179.447632 139.922852 167.786957 10.425302 -9.205874 13.441492 14.930986 -14.108313 -0.214641 8.199373 28.913475 3.835726 178.079132 -160.437393 173.358917 0.121299 0.882794 1.688663 0.243418 0.870245 0.235203 1.129776 0.622181 0.322398 0.000000 -2.385927 0.453871 180.000000 -177.216415 -179.529922 2.418992 -2.063619 0.190574 7.314984 -10.069362 0.164494 14.326957 5.705439 81.621277 18.053856 20.354122 -3.145393 0.024391 16.604500 -42.759533 65.129959 6.429481 28.512102 180.000000 180.000000 -149.944397 0.000001 -0.000000 20.017038 0.000000 0.000001 0.000000 14.999999 0.000000 69.935699 0.000002 -0.000003 57.220119 180.000000 180.000000 -139.945923 0.000000 0.000001 0.000000 0.000003 -0.000004 67.907326 0.000004 0.000000 67.907326 0.000007 -0.000001 45.226280 0.000000 0.000001 0.000000 170.000000 -179.999985 -107.687401 180.000000 179.999985 -107.687416 180.000000 -180.000000 -131.839813 0.000000 0.000001 0.000000 160.000015 -180.000000 -114.662796 0.000002 -0.000003 98.005814 0.000001 0.000001 65.271866 174.591751 -173.175629 175.150223 156.737473 -162.453110 113.688538 66.334061 156.836517 -173.363480 146.559784 174.609192 -131.724533 97.711884 167.095093 143.107788 180.000000 179.999985 168.404099 180.000000 179.999985 172.277130 180.000000 -180.000000 -179.999985 165.000015 180.000000 115.047600 0.000000 -0.000001 -53.142887 0.000002 -0.000000 -37.200016 180.000000 -180.000000 -179.999985 180.000000 -180.000000 122.381279 0.000000 -0.000000 -57.618710 0.000000 0.000000 -38.374069 180.000000 -180.000000 -179.999985 9.999999 -0.000004 -53.910786 0.000000 0.000000 -53.910793 180.000000 -180.000000 144.095413 180.000000 -180.000000 -179.999985 19.999994 -0.000002 -49.662571 0.000001 -0.000001 -74.493889 0.000000 0.000000 -49.612923
0.225595 93.823334 -18.625925 3.870060 7.269848 2.628712 176.217438 -155.138123 171.366165 0.487692 39.697063 -12.051719 10.166451 -9.109632 13.531189 15.416856 -13.020969 -0.848565 8.737329 27.616917 3.649032 178.206345 -161.109573 173.287781 179.966934 179.214676 -178.404724 0.070846 0.770687 0.080808 0.328730 0.558182 0.109365 180.000000 -177.735794 -179.680359 0.000000 -2.641569 0.331045 4.937692 -1.958936 0.026800 7.134848 -9.991509 0.141622 14.790594 6.522349 81.551178 17.292206 20.418514 -2.925774 179.963074 163.229309 137.325302 64.752136 6.520027 28.631466 180.000000 179.999985 -149.863159 0.000000 0.000005 20.071138 0.000000 -0.000000 0.000000 15.000004 -0.000006 70.074936 180.000000 -180.000000 -122.665947 0.000003 -0.000001 40.133827 0.000000 -0.000000 0.000000 0.000001 0.000001 67.799095 0.000001 -0.000005 67.799095 0.000006 -0.000003 45.154202 0.000000 -0.000000 0.000000 170.000000 -180.000000 -107.865730 180.000000 -180.000000 -107.865723 180.000000 -180.000000 -131.958572 0.000000 -0.000000 0.000000 160.000015 180.000000 -115.033119 180.000000 179.999985 -82.549667 0.000001 0.000001 64.901917 174.313339 -173.376312 175.343475 155.080994 -160.794968 115.536324 65.785004 156.118942 -172.555984 146.594360 173.831772 -131.512711 97.692924 167.083878 142.753998 0.000004 -0.000003 -11.730751 0.000000 0.000000 -7.812679 0.000000 0.000000 0.000003 165.000015 179.999985 113.242836 180.000000 179.999985 125.380508 0.000002 0.000001 -38.233643 0.000000 0.000000 0.000003 0.000000 -0.000001 -59.151749 0.000001 0.000001 -59.151760 0.000000 -0.000000 -39.395073 0.000000 0.000000 0.000003 10.000000 -0.000000 -55.426853 180.000000 -180.000000 124.573143 180.000000 -180.000000 143.085709 0.000000 0.000000 0.000003 19.999994 0.000001 -50.753357 180.000000 180.000000 103.869934 0.000000 0.000000 -50.702629
0.403891 93.946533 -18.453484 2.506612 7.365519 3.228780 176.860367 -155.133133 170.819656 1.251163 39.156788 -11.901178 9.866921 -9.003524 13.609336 15.838647 -11.922415 -1.482274 9.184327 26.248470 3.471787 178.340576 -161.874237 173.170670 179.818665 179.319946 -178.519104 179.905685 179.336655 179.934067 179.561096 179.519730 179.909348 180.000000 -177.849609 -179.821457 0.000000 -2.508808 0.184928 7.395195 -1.850263 -0.130173 6.924258 -9.905478 0.110126 15.253120 7.262006 81.429245 16.721775 20.564169 -2.699932 179.908493 163.082504 137.417511 64.706383 6.530972 28.810001 0.000002 0.000001 30.228983 0.000001 -0.000002 20.132509 0.000000 -0.000000 0.000000 15.000000 -0.000001 70.331268 180.000000 180.000000 -122.456238 0.000006 -0.000004 40.280636 0.000000 -0.000000 0.000000 0.000002 -0.000000 67.778641 0.000000 0.000001 67.778618 0.000007 -0.000002 45.140575 0.000000 -0.000000 0.000000 170.000000 -180.000000 -107.963890 180.000000 -180.000000 -107.963898 0.000003 -0.000002 47.976048 0.000000 -0.000000 0.000000 160.000000 179.999985 -115.263443 0.000002 -0.000003 97.104881 0.000004 -0.000000 64.671829 173.974884 -173.583145 175.527084 153.371796 -159.314194 117.410225 65.467812 155.362778 -171.752365 146.685730 173.072754 -131.299438 97.453453 166.945816 142.125839 0.000004 -0.000003 -11.511310 0.000002 -0.000003 -7.666530 0.000000 -0.000000 0.000000 165.000015 180.000000 111.677391 180.000000 180.000000 124.099686 0.000002 0.000001 -39.130219 0.000000 -0.000000 0.000000 0.000001 -0.000000 -60.569557 180.000000 180.000000 119.430458 180.000000 180.000000 139.660690 0.000000 -0.000000 0.000000 10.000001 -0.000000 -56.886814 180.000000 -180.000000 123.113190 180.000000 -180.000000 142.113388 0.000000 -0.000000 0.000000 19.999998 -0.000001 -51.734993 0.000000 0.000000 -77.602493 0.000001 0.000000 -51.683258
